<?xml version="1.0" encoding="UTF-8" standalone="no"?>
<!DOCTYPE svg PUBLIC "-//W3C//DTD SVG 1.1//EN"
 "http://www.w3.org/Graphics/SVG/1.1/DTD/svg11.dtd">
<!-- Generated by graphviz version 2.40.1 (20161225.0304)
 -->
<!-- Title: dependencies Pages: 1 -->
<svg width="660pt" height="360pt"
 viewBox="0.00 0.00 660.00 360.00" xmlns="http://www.w3.org/2000/svg" xmlns:xlink="http://www.w3.org/1999/xlink">
<g id="graph0" class="graph" transform="scale(1 1) rotate(0) translate(4 356)">
<title>dependencies</title>
<polygon fill="#ffffff" stroke="transparent" points="-4,4 -4,-356 656,-356 656,4 -4,4"/>
<text text-anchor="start" x="305.0091" y="-42.4" font-family="sans-serif" font-weight="bold" font-size="14.00" fill="#000000">Legend</text>
<polygon fill="#ffffb3" stroke="transparent" points="92,-10 92,-30 112,-30 112,-10 92,-10"/>
<text text-anchor="start" x="115.629" y="-15.4" font-family="sans-serif" font-size="14.00" fill="#000000"> &#160;Declarations</text>
<polygon fill="#8dd3c7" stroke="transparent" points="205,-10 205,-30 225,-30 225,-10 205,-10"/>
<text text-anchor="start" x="228.7251" y="-15.4" font-family="sans-serif" font-size="14.00" fill="#000000"> &#160;Module</text>
<polygon fill="#80b1d3" stroke="transparent" points="291,-10 291,-30 311,-30 311,-10 291,-10"/>
<text text-anchor="start" x="314.7812" y="-15.4" font-family="sans-serif" font-size="14.00" fill="#000000"> &#160;Bootstrap</text>
<polygon fill="#fdb462" stroke="transparent" points="388,-10 388,-30 408,-30 408,-10 388,-10"/>
<text text-anchor="start" x="411.6732" y="-15.4" font-family="sans-serif" font-size="14.00" fill="#000000"> &#160;Providers</text>
<polygon fill="#fb8072" stroke="transparent" points="484,-10 484,-30 504,-30 504,-10 484,-10"/>
<text text-anchor="start" x="507.7258" y="-15.4" font-family="sans-serif" font-size="14.00" fill="#000000"> &#160;Exports</text>
<g id="clust1" class="cluster">
<title>cluster_AppModule</title>
<polygon fill="none" stroke="#000000" stroke-dasharray="1,5" points="250,-146 250,-344 564,-344 564,-146 250,-146"/>
</g>
<g id="clust2" class="cluster">
<title>cluster_AppModule_declarations</title>
<polygon fill="none" stroke="#000000" points="434,-154 434,-206 556,-206 556,-154 434,-154"/>
</g>
<g id="clust4" class="cluster">
<title>cluster_AppModule_imports</title>
<polygon fill="none" stroke="#000000" points="258,-154 258,-206 426,-206 426,-154 258,-154"/>
</g>
<g id="clust6" class="cluster">
<title>cluster_AppModule_bootstrap</title>
<polygon fill="none" stroke="#000000" points="356,-284 356,-336 480,-336 480,-284 356,-284"/>
</g>
<g id="clust8" class="cluster">
<title>cluster_TimezonePickerModule</title>
<polygon fill="none" stroke="#000000" stroke-dasharray="1,5" points="8,-70 8,-138 644,-138 644,-70 8,-70"/>
</g>
<g id="clust9" class="cluster">
<title>cluster_TimezonePickerModule_declarations</title>
<polygon fill="none" stroke="#000000" points="446,-78 446,-130 636,-130 636,-78 446,-78"/>
</g>
<g id="clust12" class="cluster">
<title>cluster_TimezonePickerModule_exports</title>
<polygon fill="none" stroke="#000000" points="246,-78 246,-130 438,-130 438,-78 246,-78"/>
</g>
<g id="clust14" class="cluster">
<title>cluster_TimezonePickerModule_providers</title>
<polygon fill="none" stroke="#000000" points="16,-78 16,-130 238,-130 238,-78 16,-78"/>
</g>
<!-- AppComponent -->
<g id="node1" class="node">
<title>AppComponent</title>
<polygon fill="#ffffb3" stroke="#000000" points="547.9399,-198 442.0601,-198 442.0601,-162 547.9399,-162 547.9399,-198"/>
<text text-anchor="middle" x="495" y="-175.8" font-family="Times,serif" font-size="14.00" fill="#000000">AppComponent</text>
</g>
<!-- AppModule -->
<g id="node2" class="node">
<title>AppModule</title>
<polygon fill="#8dd3c7" stroke="#000000" points="459.6571,-263 456.6571,-267 435.6571,-267 432.6571,-263 376.3429,-263 376.3429,-227 459.6571,-227 459.6571,-263"/>
<text text-anchor="middle" x="418" y="-240.8" font-family="Times,serif" font-size="14.00" fill="#000000">AppModule</text>
</g>
<!-- AppComponent&#45;&gt;AppModule -->
<g id="edge1" class="edge">
<title>AppComponent&#45;&gt;AppModule</title>
<path fill="none" stroke="#000000" d="M451.0544,-198.1061C451.0544,-198.1061 451.0544,-216.991 451.0544,-216.991"/>
<polygon fill="#000000" stroke="#000000" points="447.5544,-216.9909 451.0544,-226.991 454.5544,-216.991 447.5544,-216.9909"/>
</g>
<!-- AppComponent  -->
<g id="node4" class="node">
<title>AppComponent </title>
<polygon fill="#80b1d3" stroke="#000000" points="472.439,-328 363.561,-328 363.561,-292 472.439,-292 472.439,-328"/>
<text text-anchor="middle" x="418" y="-305.8" font-family="Times,serif" font-size="14.00" fill="#000000">AppComponent </text>
</g>
<!-- AppModule&#45;&gt;AppComponent  -->
<g id="edge3" class="edge">
<title>AppModule&#45;&gt;AppComponent </title>
<path fill="none" stroke="#000000" stroke-dasharray="1,5" d="M418,-263.1061C418,-263.1061 418,-281.991 418,-281.991"/>
<polygon fill="#000000" stroke="#000000" points="414.5001,-281.9909 418,-291.991 421.5001,-281.991 414.5001,-281.9909"/>
</g>
<!-- TimezonePickerModule -->
<g id="node3" class="node">
<title>TimezonePickerModule</title>
<polygon fill="#8dd3c7" stroke="#000000" points="417.7907,-198 414.7907,-202 393.7907,-202 390.7907,-198 266.2093,-198 266.2093,-162 417.7907,-162 417.7907,-198"/>
<text text-anchor="middle" x="342" y="-175.8" font-family="Times,serif" font-size="14.00" fill="#000000">TimezonePickerModule</text>
</g>
<!-- TimezonePickerModule&#45;&gt;AppModule -->
<g id="edge2" class="edge">
<title>TimezonePickerModule&#45;&gt;AppModule</title>
<path fill="none" stroke="#000000" d="M396.9085,-198.1061C396.9085,-198.1061 396.9085,-216.991 396.9085,-216.991"/>
<polygon fill="#000000" stroke="#000000" points="393.4086,-216.9909 396.9085,-226.991 400.4086,-216.991 393.4086,-216.9909"/>
</g>
<!-- TimezonePickerComponent  -->
<g id="node6" class="node">
<title>TimezonePickerComponent </title>
<polygon fill="#fb8072" stroke="#000000" points="430.0735,-122 253.9265,-122 253.9265,-86 430.0735,-86 430.0735,-122"/>
<text text-anchor="middle" x="342" y="-99.8" font-family="Times,serif" font-size="14.00" fill="#000000">TimezonePickerComponent </text>
</g>
<!-- TimezonePickerModule&#45;&gt;TimezonePickerComponent  -->
<g id="edge5" class="edge">
<title>TimezonePickerModule&#45;&gt;TimezonePickerComponent </title>
<path fill="none" stroke="#000000" stroke-dasharray="5,2" d="M342,-161.9891C342,-161.9891 342,-132.145 342,-132.145"/>
<polygon fill="#000000" stroke="#000000" points="345.5001,-132.145 342,-122.145 338.5001,-132.1451 345.5001,-132.145"/>
</g>
<!-- TimezonePickerComponent -->
<g id="node5" class="node">
<title>TimezonePickerComponent</title>
<polygon fill="#ffffb3" stroke="#000000" points="627.573,-122 454.427,-122 454.427,-86 627.573,-86 627.573,-122"/>
<text text-anchor="middle" x="541" y="-99.8" font-family="Times,serif" font-size="14.00" fill="#000000">TimezonePickerComponent</text>
</g>
<!-- TimezonePickerComponent&#45;&gt;TimezonePickerModule -->
<g id="edge4" class="edge">
<title>TimezonePickerComponent&#45;&gt;TimezonePickerModule</title>
<path fill="none" stroke="#000000" d="M454.0472,-104C443.4562,-104 436.2835,-104 436.2835,-104 436.2835,-104 436.2835,-180 436.2835,-180 436.2835,-180 427.6561,-180 427.6561,-180"/>
<polygon fill="#000000" stroke="#000000" points="427.6561,-176.5001 417.6561,-180 427.6561,-183.5001 427.6561,-176.5001"/>
</g>
<!-- TimezonePickerService -->
<g id="node7" class="node">
<title>TimezonePickerService</title>
<ellipse fill="#fdb462" stroke="#000000" cx="127" cy="-104" rx="103.0463" ry="18"/>
<text text-anchor="middle" x="127" y="-99.8" font-family="Times,serif" font-size="14.00" fill="#000000">TimezonePickerService</text>
</g>
<!-- TimezonePickerService&#45;&gt;TimezonePickerModule -->
<g id="edge6" class="edge">
<title>TimezonePickerService&#45;&gt;TimezonePickerModule</title>
<path fill="none" stroke="#000000" d="M127,-122.0109C127,-144.4852 127,-180 127,-180 127,-180 256.199,-180 256.199,-180"/>
<polygon fill="#000000" stroke="#000000" points="256.1991,-183.5001 266.199,-180 256.199,-176.5001 256.1991,-183.5001"/>
</g>
</g>
</svg>
