<?xml version="1.0" encoding="UTF-8" standalone="no"?>
<!DOCTYPE svg PUBLIC "-//W3C//DTD SVG 1.1//EN"
 "http://www.w3.org/Graphics/SVG/1.1/DTD/svg11.dtd">
<!-- Generated by graphviz version 2.40.1 (20161225.0304)
 -->
<!-- Title: dependencies Pages: 1 -->
<svg width="752pt" height="290pt"
 viewBox="0.00 0.00 752.00 290.00" xmlns="http://www.w3.org/2000/svg" xmlns:xlink="http://www.w3.org/1999/xlink">
<g id="graph0" class="graph" transform="scale(1 1) rotate(0) translate(4 286)">
<title>dependencies</title>
<polygon fill="#ffffff" stroke="transparent" points="-4,4 -4,-286 748,-286 748,4 -4,4"/>
<text text-anchor="start" x="351.0091" y="-42.4" font-family="sans-serif" font-weight="bold" font-size="14.00" fill="#000000">Legend</text>
<polygon fill="#ffffb3" stroke="transparent" points="138,-10 138,-30 158,-30 158,-10 138,-10"/>
<text text-anchor="start" x="161.629" y="-15.4" font-family="sans-serif" font-size="14.00" fill="#000000"> &#160;Declarations</text>
<polygon fill="#8dd3c7" stroke="transparent" points="251,-10 251,-30 271,-30 271,-10 251,-10"/>
<text text-anchor="start" x="274.7251" y="-15.4" font-family="sans-serif" font-size="14.00" fill="#000000"> &#160;Module</text>
<polygon fill="#80b1d3" stroke="transparent" points="337,-10 337,-30 357,-30 357,-10 337,-10"/>
<text text-anchor="start" x="360.7812" y="-15.4" font-family="sans-serif" font-size="14.00" fill="#000000"> &#160;Bootstrap</text>
<polygon fill="#fdb462" stroke="transparent" points="434,-10 434,-30 454,-30 454,-10 434,-10"/>
<text text-anchor="start" x="457.6732" y="-15.4" font-family="sans-serif" font-size="14.00" fill="#000000"> &#160;Providers</text>
<polygon fill="#fb8072" stroke="transparent" points="530,-10 530,-30 550,-30 550,-10 530,-10"/>
<text text-anchor="start" x="553.7258" y="-15.4" font-family="sans-serif" font-size="14.00" fill="#000000"> &#160;Exports</text>
<g id="clust1" class="cluster">
<title>cluster_AppModule</title>
<polygon fill="none" stroke="#000000" stroke-dasharray="1,5" points="8,-70 8,-274 322,-274 322,-70 8,-70"/>
</g>
<g id="clust2" class="cluster">
<title>cluster_AppModule_declarations</title>
<polygon fill="none" stroke="#000000" points="16,-78 16,-130 138,-130 138,-78 16,-78"/>
</g>
<g id="clust4" class="cluster">
<title>cluster_AppModule_imports</title>
<polygon fill="none" stroke="#000000" points="146,-78 146,-130 314,-130 314,-78 146,-78"/>
</g>
<g id="clust6" class="cluster">
<title>cluster_AppModule_bootstrap</title>
<polygon fill="none" stroke="#000000" points="92,-214 92,-266 216,-266 216,-214 92,-214"/>
</g>
<g id="clust8" class="cluster">
<title>cluster_TimezonePickerModule</title>
<polygon fill="none" stroke="#000000" stroke-dasharray="1,5" points="330,-138 330,-206 736,-206 736,-138 330,-138"/>
</g>
<g id="clust9" class="cluster">
<title>cluster_TimezonePickerModule_declarations</title>
<polygon fill="none" stroke="#000000" points="538,-146 538,-198 728,-198 728,-146 538,-146"/>
</g>
<g id="clust12" class="cluster">
<title>cluster_TimezonePickerModule_exports</title>
<polygon fill="none" stroke="#000000" points="338,-146 338,-198 530,-198 530,-146 338,-146"/>
</g>
<!-- AppComponent -->
<g id="node1" class="node">
<title>AppComponent</title>
<polygon fill="#ffffb3" stroke="#000000" points="129.9399,-122 24.0601,-122 24.0601,-86 129.9399,-86 129.9399,-122"/>
<text text-anchor="middle" x="77" y="-99.8" font-family="Times,serif" font-size="14.00" fill="#000000">AppComponent</text>
</g>
<!-- AppModule -->
<g id="node2" class="node">
<title>AppModule</title>
<polygon fill="#8dd3c7" stroke="#000000" points="195.6571,-190 192.6571,-194 171.6571,-194 168.6571,-190 112.3429,-190 112.3429,-154 195.6571,-154 195.6571,-190"/>
<text text-anchor="middle" x="154" y="-167.8" font-family="Times,serif" font-size="14.00" fill="#000000">AppModule</text>
</g>
<!-- AppComponent&#45;&gt;AppModule -->
<g id="edge1" class="edge">
<title>AppComponent&#45;&gt;AppModule</title>
<path fill="none" stroke="#000000" d="M120.9457,-122.2228C120.9457,-122.2228 120.9457,-143.7269 120.9457,-143.7269"/>
<polygon fill="#000000" stroke="#000000" points="117.4457,-143.7269 120.9457,-153.7269 124.4457,-143.727 117.4457,-143.7269"/>
</g>
<!-- AppComponent  -->
<g id="node4" class="node">
<title>AppComponent </title>
<polygon fill="#80b1d3" stroke="#000000" points="208.439,-258 99.561,-258 99.561,-222 208.439,-222 208.439,-258"/>
<text text-anchor="middle" x="154" y="-235.8" font-family="Times,serif" font-size="14.00" fill="#000000">AppComponent </text>
</g>
<!-- AppModule&#45;&gt;AppComponent  -->
<g id="edge3" class="edge">
<title>AppModule&#45;&gt;AppComponent </title>
<path fill="none" stroke="#000000" stroke-dasharray="1,5" d="M154,-190.2228C154,-190.2228 154,-211.7269 154,-211.7269"/>
<polygon fill="#000000" stroke="#000000" points="150.5001,-211.7269 154,-221.7269 157.5001,-211.727 150.5001,-211.7269"/>
</g>
<!-- TimezonePickerModule -->
<g id="node3" class="node">
<title>TimezonePickerModule</title>
<polygon fill="#8dd3c7" stroke="#000000" points="305.7907,-122 302.7907,-126 281.7907,-126 278.7907,-122 154.2093,-122 154.2093,-86 305.7907,-86 305.7907,-122"/>
<text text-anchor="middle" x="230" y="-99.8" font-family="Times,serif" font-size="14.00" fill="#000000">TimezonePickerModule</text>
</g>
<!-- TimezonePickerModule&#45;&gt;AppModule -->
<g id="edge2" class="edge">
<title>TimezonePickerModule&#45;&gt;AppModule</title>
<path fill="none" stroke="#000000" d="M175.0915,-122.2228C175.0915,-122.2228 175.0915,-143.7269 175.0915,-143.7269"/>
<polygon fill="#000000" stroke="#000000" points="171.5916,-143.7269 175.0915,-153.7269 178.5916,-143.727 171.5916,-143.7269"/>
</g>
<!-- TimezonePickerComponent  -->
<g id="node6" class="node">
<title>TimezonePickerComponent </title>
<polygon fill="#fb8072" stroke="#000000" points="522.0735,-190 345.9265,-190 345.9265,-154 522.0735,-154 522.0735,-190"/>
<text text-anchor="middle" x="434" y="-167.8" font-family="Times,serif" font-size="14.00" fill="#000000">TimezonePickerComponent </text>
</g>
<!-- TimezonePickerModule&#45;&gt;TimezonePickerComponent  -->
<g id="edge5" class="edge">
<title>TimezonePickerModule&#45;&gt;TimezonePickerComponent </title>
<path fill="none" stroke="#000000" stroke-dasharray="5,2" d="M257.0574,-122.2228C257.0574,-142.3652 257.0574,-172 257.0574,-172 257.0574,-172 335.7879,-172 335.7879,-172"/>
<polygon fill="#000000" stroke="#000000" points="335.7879,-175.5001 345.7879,-172 335.7878,-168.5001 335.7879,-175.5001"/>
</g>
<!-- TimezonePickerComponent -->
<g id="node5" class="node">
<title>TimezonePickerComponent</title>
<polygon fill="#ffffb3" stroke="#000000" points="719.573,-190 546.427,-190 546.427,-154 719.573,-154 719.573,-190"/>
<text text-anchor="middle" x="633" y="-167.8" font-family="Times,serif" font-size="14.00" fill="#000000">TimezonePickerComponent</text>
</g>
<!-- TimezonePickerComponent&#45;&gt;TimezonePickerModule -->
<g id="edge4" class="edge">
<title>TimezonePickerComponent&#45;&gt;TimezonePickerModule</title>
<path fill="none" stroke="#000000" d="M633,-153.7772C633,-133.6348 633,-104 633,-104 633,-104 315.8012,-104 315.8012,-104"/>
<polygon fill="#000000" stroke="#000000" points="315.8013,-100.5001 305.8012,-104 315.8012,-107.5001 315.8013,-100.5001"/>
</g>
</g>
</svg>
