<?xml version="1.0" encoding="UTF-8" standalone="no"?>
<!DOCTYPE svg PUBLIC "-//W3C//DTD SVG 1.1//EN"
 "http://www.w3.org/Graphics/SVG/1.1/DTD/svg11.dtd">
<!-- Generated by graphviz version 2.40.1 (20161225.0304)
 -->
<!-- Title: dependencies Pages: 1 -->
<svg width="504pt" height="284pt"
 viewBox="0.00 0.00 504.00 284.00" xmlns="http://www.w3.org/2000/svg" xmlns:xlink="http://www.w3.org/1999/xlink">
<g id="graph0" class="graph" transform="scale(1 1) rotate(0) translate(4 280)">
<title>dependencies</title>
<polygon fill="#ffffff" stroke="transparent" points="-4,4 -4,-280 500,-280 500,4 -4,4"/>
<text text-anchor="start" x="227.0091" y="-42.4" font-family="sans-serif" font-weight="bold" font-size="14.00" fill="#000000">Legend</text>
<polygon fill="#ffffb3" stroke="transparent" points="14,-10 14,-30 34,-30 34,-10 14,-10"/>
<text text-anchor="start" x="37.629" y="-15.4" font-family="sans-serif" font-size="14.00" fill="#000000"> &#160;Declarations</text>
<polygon fill="#8dd3c7" stroke="transparent" points="127,-10 127,-30 147,-30 147,-10 127,-10"/>
<text text-anchor="start" x="150.7251" y="-15.4" font-family="sans-serif" font-size="14.00" fill="#000000"> &#160;Module</text>
<polygon fill="#80b1d3" stroke="transparent" points="213,-10 213,-30 233,-30 233,-10 213,-10"/>
<text text-anchor="start" x="236.7812" y="-15.4" font-family="sans-serif" font-size="14.00" fill="#000000"> &#160;Bootstrap</text>
<polygon fill="#fdb462" stroke="transparent" points="310,-10 310,-30 330,-30 330,-10 310,-10"/>
<text text-anchor="start" x="333.6732" y="-15.4" font-family="sans-serif" font-size="14.00" fill="#000000"> &#160;Providers</text>
<polygon fill="#fb8072" stroke="transparent" points="406,-10 406,-30 426,-30 426,-10 406,-10"/>
<text text-anchor="start" x="429.7258" y="-15.4" font-family="sans-serif" font-size="14.00" fill="#000000"> &#160;Exports</text>
<g id="clust1" class="cluster">
<title>cluster_TimezonePickerModule</title>
<polygon fill="none" stroke="#000000" stroke-dasharray="1,5" points="30,-70 30,-268 466,-268 466,-70 30,-70"/>
</g>
<g id="clust2" class="cluster">
<title>cluster_TimezonePickerModule_declarations</title>
<polygon fill="none" stroke="#000000" points="268,-78 268,-130 458,-130 458,-78 268,-78"/>
</g>
<g id="clust5" class="cluster">
<title>cluster_TimezonePickerModule_exports</title>
<polygon fill="none" stroke="#000000" points="159,-208 159,-260 351,-260 351,-208 159,-208"/>
</g>
<g id="clust7" class="cluster">
<title>cluster_TimezonePickerModule_providers</title>
<polygon fill="none" stroke="#000000" points="38,-78 38,-130 260,-130 260,-78 38,-78"/>
</g>
<!-- TimezonePickerComponent -->
<g id="node1" class="node">
<title>TimezonePickerComponent</title>
<polygon fill="#ffffb3" stroke="#000000" points="449.573,-122 276.427,-122 276.427,-86 449.573,-86 449.573,-122"/>
<text text-anchor="middle" x="363" y="-99.8" font-family="Times,serif" font-size="14.00" fill="#000000">TimezonePickerComponent</text>
</g>
<!-- TimezonePickerModule -->
<g id="node2" class="node">
<title>TimezonePickerModule</title>
<polygon fill="#8dd3c7" stroke="#000000" points="330.7907,-187 327.7907,-191 306.7907,-191 303.7907,-187 179.2093,-187 179.2093,-151 330.7907,-151 330.7907,-187"/>
<text text-anchor="middle" x="255" y="-164.8" font-family="Times,serif" font-size="14.00" fill="#000000">TimezonePickerModule</text>
</g>
<!-- TimezonePickerComponent&#45;&gt;TimezonePickerModule -->
<g id="edge1" class="edge">
<title>TimezonePickerComponent&#45;&gt;TimezonePickerModule</title>
<path fill="none" stroke="#000000" d="M303.5544,-122.1061C303.5544,-122.1061 303.5544,-140.991 303.5544,-140.991"/>
<polygon fill="#000000" stroke="#000000" points="300.0544,-140.9909 303.5544,-150.991 307.0544,-140.991 300.0544,-140.9909"/>
</g>
<!-- TimezonePickerComponent  -->
<g id="node3" class="node">
<title>TimezonePickerComponent </title>
<polygon fill="#fb8072" stroke="#000000" points="343.0735,-252 166.9265,-252 166.9265,-216 343.0735,-216 343.0735,-252"/>
<text text-anchor="middle" x="255" y="-229.8" font-family="Times,serif" font-size="14.00" fill="#000000">TimezonePickerComponent </text>
</g>
<!-- TimezonePickerModule&#45;&gt;TimezonePickerComponent  -->
<g id="edge2" class="edge">
<title>TimezonePickerModule&#45;&gt;TimezonePickerComponent </title>
<path fill="none" stroke="#000000" stroke-dasharray="5,2" d="M255,-187.1061C255,-187.1061 255,-205.991 255,-205.991"/>
<polygon fill="#000000" stroke="#000000" points="251.5001,-205.9909 255,-215.991 258.5001,-205.991 251.5001,-205.9909"/>
</g>
<!-- TimezonePickerService -->
<g id="node4" class="node">
<title>TimezonePickerService</title>
<ellipse fill="#fdb462" stroke="#000000" cx="149" cy="-104" rx="103.0463" ry="18"/>
<text text-anchor="middle" x="149" y="-99.8" font-family="Times,serif" font-size="14.00" fill="#000000">TimezonePickerService</text>
</g>
<!-- TimezonePickerService&#45;&gt;TimezonePickerModule -->
<g id="edge3" class="edge">
<title>TimezonePickerService&#45;&gt;TimezonePickerModule</title>
<path fill="none" stroke="#000000" d="M215.8138,-117.7848C215.8138,-117.7848 215.8138,-140.5475 215.8138,-140.5475"/>
<polygon fill="#000000" stroke="#000000" points="212.3139,-140.5474 215.8138,-150.5475 219.3139,-140.5475 212.3139,-140.5474"/>
</g>
</g>
</svg>
